<?xml version="1.0" encoding="UTF-8"?>
<svg xmlns="http://www.w3.org/2000/svg" xmlns:xlink="http://www.w3.org/1999/xlink" width="32px" height="32px" viewBox="0 0 32 32" version="1.1">
<g id="surface1">
<path style=" stroke:none;fill-rule:nonzero;fill:rgb(15.294118%,41.960784%,85.490196%);fill-opacity:1;" d="M 16 31.5 C 24.550781 31.5 31.5 24.550781 31.5 16 C 31.5 7.449219 24.550781 0.5 16 0.5 C 7.449219 0.5 0.5 7.449219 0.5 16 C 0.5 24.550781 7.449219 31.5 16 31.5 Z M 4 22.175781 L 10.300781 22.125 C 11 24.648438 12.175781 27.101562 13.773438 29.300781 C 9.5 28.601562 5.925781 25.875 4 22.175781 Z M 11.898438 11.75 L 19.75 11.75 C 20.324219 14.5 20.324219 17.324219 19.800781 20.074219 L 11.898438 20.125 C 11.324219 17.351562 11.324219 14.5 11.898438 11.75 Z M 15.824219 28.726562 C 14.25 26.699219 13.101562 24.476562 12.398438 22.125 L 19.273438 22.074219 C 18.550781 24.425781 17.398438 26.675781 15.824219 28.726562 Z M 17.824219 29.375 C 19.476562 27.125 20.648438 24.648438 21.351562 22.050781 L 28.074219 22 C 26.125 25.925781 22.324219 28.75 17.824219 29.375 Z M 29.5 16 C 29.5 17.398438 29.273438 18.75 28.898438 20 L 21.824219 20.050781 C 22.324219 17.300781 22.300781 14.5 21.773438 11.75 L 28.800781 11.75 C 29.25 13.074219 29.5 14.523438 29.5 16 Z M 27.949219 9.75 L 21.300781 9.75 C 20.574219 7.25 19.425781 4.824219 17.824219 2.625 C 22.25 3.226562 25.976562 5.949219 27.949219 9.75 Z M 19.226562 9.75 L 12.425781 9.75 C 13.148438 7.449219 14.273438 5.273438 15.824219 3.273438 C 17.375 5.273438 18.5 7.449219 19.226562 9.75 Z M 13.773438 2.699219 C 12.199219 4.875 11.050781 7.25 10.351562 9.75 L 4.050781 9.75 C 5.976562 6.074219 9.523438 3.398438 13.773438 2.699219 Z M 9.875 11.75 C 9.351562 14.523438 9.351562 17.351562 9.851562 20.125 L 3.175781 20.175781 C 2.726562 18.851562 2.5 17.449219 2.5 16 C 2.5 14.523438 2.75 13.074219 3.199219 11.75 Z M 9.875 11.75 "/>
</g>
</svg>
