<?xml version="1.0" encoding="UTF-8"?>
<svg xmlns="http://www.w3.org/2000/svg" xmlns:xlink="http://www.w3.org/1999/xlink" width="32px" height="32px" viewBox="0 0 32 32" version="1.1">
<g id="surface1">
<path style=" stroke:none;fill-rule:nonzero;fill:rgb(15.294118%,41.960784%,85.490196%);fill-opacity:1;" d="M 28.894531 5.332031 L 3.105469 5.332031 C 1.402344 5.332031 0 6.710938 0 8.433594 L 0 23.566406 C 0 25.269531 1.386719 26.667969 3.105469 26.667969 L 28.894531 26.667969 C 30.613281 26.667969 32 25.269531 32 23.566406 L 32 8.433594 C 32 6.710938 30.597656 5.332031 28.894531 5.332031 Z M 28.289062 7.023438 L 16 14.992188 L 3.710938 7.023438 Z M 1.695312 8.433594 C 1.695312 8.222656 1.742188 8.011719 1.832031 7.824219 L 9.519531 12.808594 L 1.695312 23.277344 Z M 28.894531 24.976562 L 3.105469 24.976562 C 2.929688 24.976562 2.761719 24.941406 2.605469 24.882812 L 10.945312 13.730469 L 15.539062 16.710938 C 15.820312 16.890625 16.179688 16.890625 16.460938 16.710938 L 21.054688 13.730469 L 29.394531 24.882812 C 29.238281 24.941406 29.070312 24.976562 28.894531 24.976562 Z M 30.304688 23.277344 L 22.480469 12.808594 L 30.167969 7.824219 C 30.257812 8.011719 30.304688 8.222656 30.304688 8.433594 Z M 30.304688 23.277344 "/>
</g>
</svg>
