<?xml version="1.0" encoding="UTF-8"?>
<svg xmlns="http://www.w3.org/2000/svg" xmlns:xlink="http://www.w3.org/1999/xlink" width="32px" height="32px" viewBox="0 0 32 32" version="1.1">
<g id="surface1">
<path style=" stroke:none;fill-rule:nonzero;fill:rgb(15.294118%,41.960784%,85.490196%);fill-opacity:1;" d="M 23.792969 2.746094 C 21.808594 0.972656 19.027344 0 16 0 C 12.972656 0 10.191406 0.972656 8.207031 2.746094 C 5.773438 4.90625 4.523438 8.140625 4.523438 12.175781 C 4.523438 20.90625 14.574219 31.164062 15.027344 31.582031 C 15.304688 31.859375 15.652344 32 16 32 C 16.347656 32 16.730469 31.859375 16.972656 31.582031 C 17.425781 31.164062 27.476562 20.90625 27.476562 12.175781 C 27.476562 8.140625 26.226562 4.90625 23.792969 2.746094 Z M 16 28.554688 C 15.0625 27.511719 13.566406 25.773438 12.105469 23.6875 C 8.972656 19.234375 7.304688 15.269531 7.304688 12.175781 C 7.304688 3.476562 13.949219 2.78125 16 2.78125 C 24.070312 2.78125 24.695312 9.984375 24.695312 12.175781 C 24.695312 18.296875 18.46875 25.84375 16 28.554688 Z M 16 6.015625 C 12.9375 6.015625 10.46875 8.554688 10.46875 11.652344 C 10.46875 14.746094 12.9375 17.253906 16 17.253906 C 19.0625 17.253906 21.53125 14.714844 21.53125 11.617188 C 21.53125 8.523438 19.0625 6.015625 16 6.015625 Z M 16 14.816406 C 14.296875 14.816406 12.90625 13.390625 12.90625 11.617188 C 12.90625 9.84375 14.296875 8.417969 16 8.417969 C 17.703125 8.417969 19.09375 9.84375 19.09375 11.617188 C 19.09375 13.390625 17.703125 14.816406 16 14.816406 Z M 16 14.816406 "/>
</g>
</svg>
